<svg width="32" height="32" viewBox="0 0 32 32" fill="none" xmlns="http://www.w3.org/2000/svg">
<g clip-path="url(#clip0_588_8310)">
<path d="M30.8697 5.10669C29.9877 3.58244 28.7199 2.30406 27.2039 1.40981C25.6402 0.4875 23.8495 0 22.025 0C20.2005 0 18.4096 0.4875 16.846 1.40981C15.3299 2.30412 14.0622 3.5825 13.1802 5.10669C13.0001 5.41788 13.0138 5.8045 13.2154 6.10213L17.2474 12.0536C17.2707 12.0519 17.294 12.05 17.3179 12.05H20.2221L19.6293 10.2714C19.4656 9.78025 19.731 9.24931 20.2222 9.08556C20.7135 8.92194 21.2444 9.18738 21.4081 9.6785L22.025 11.5292L22.6419 9.6785C22.8055 9.18731 23.3364 8.92181 23.8277 9.08556C24.3189 9.24931 24.5844 9.78019 24.4207 10.2714L23.8279 12.05H26.7321C26.7559 12.05 26.7792 12.0518 26.8027 12.0536L30.8345 6.10213C31.0361 5.8045 31.0498 5.41788 30.8697 5.10669Z" fill="#388FF3"/>
<path d="M18.075 30.0584C18.075 31.129 18.946 32 20.0166 32H24.0333C25.104 32 25.975 31.129 25.975 30.0584V13.925H18.075V30.0584Z" fill="#388FF3"/>
<path d="M2.0083 11.9167H10.9125V21.0875H2.0083V11.9167Z" fill="#388FF3"/>
<path d="M1.00415 30.0584C1.00415 31.129 1.87515 32 2.94578 32H9.97503C11.0457 32 11.9167 31.129 11.9167 30.0584V22.9625H1.00415V30.0584Z" fill="#388FF3"/>
<path d="M9.90833 1.94165C9.90833 1.00928 9.24301 0.306213 8.36083 0.306213C8.13776 0.306213 7.91214 0.351213 7.69033 0.440026L4.53414 1.70246C3.66664 2.04946 3.01245 3.01571 3.01245 3.95003V10.0417H9.90833V1.94165Z" fill="#388FF3"/>
</g>
<defs>
<clipPath id="clip0_588_8310">
<rect width="32" height="32" fill="white"/>
</clipPath>
</defs>
</svg>
