<svg width="32" height="32" viewBox="0 0 32 32" fill="none" xmlns="http://www.w3.org/2000/svg">
<path d="M18.6767 9.49844C18.7967 9.35175 18.9301 9.22181 19.0734 9.10512C16.2655 8.53287 14.6211 9.71819 12.9901 11.5884C15.9982 11.9076 16.699 11.8692 18.6767 9.49844Z" fill="#388FF3"/>
<path d="M26.6399 16.9417C25.8292 16.9417 25.063 17.1281 24.3736 17.4519L23.3901 15.8916C25.2464 14.9318 26.6736 15.3387 28.4267 15.2418C29.0567 15.2418 29.61 14.8884 29.8766 14.3184C30.1433 13.7484 30.0566 13.0951 29.6533 12.6151L24.0466 5.92844C23.5366 5.32175 22.71 5.14513 22.0199 5.45175H22.0166L19.8 4.40507C19.47 4.24844 19.07 4.39175 18.9134 4.72507C18.7567 5.05838 18.9001 5.45507 19.2333 5.61175L21.0733 6.48175C20.8676 7.01638 20.9749 7.70844 21.41 8.19838L23.1767 10.2051C23.2867 10.3284 23.2834 10.5151 23.17 10.635C23.0633 10.7483 22.8934 10.7684 22.7633 10.6817L21.78 10.0384C21.11 9.59838 20.2167 9.73175 19.7 10.3517C17.27 13.265 16.04 13.275 12.5267 12.875C11.1866 12.7183 10.1034 12.245 9.30675 11.465C7.98675 10.1717 6.40344 9.36832 4.73012 9.14507L2.2235 8.81176C1.26706 8.68007 0.406812 9.42907 0.406812 10.4018C0.406812 10.9851 0.723437 11.5218 1.2335 11.8051C2.53687 12.5284 6.92681 14.9684 8.58019 16.0251C8.97169 16.2749 9.30044 16.5602 9.58619 16.8658L8.5245 17.9871C7.636 17.3331 6.54275 16.9418 5.35681 16.9418C2.40337 16.9418 0 19.3451 0 22.3018C0 25.2551 2.40337 27.6584 5.35669 27.6584C8.31331 27.6584 10.7167 25.2551 10.7167 22.3018C10.7167 21.011 10.2583 19.8259 9.49612 18.8999L10.379 17.9675C11.2306 19.5583 11.2234 21.4123 11.0933 22.5985C10.9599 23.7849 11.8955 24.8152 13.08 24.8152H17.43C18.32 24.8152 19.1134 24.2152 19.3566 23.3585L20.4533 19.4752C20.7732 18.3411 21.4257 17.3658 22.2829 16.6363L23.2436 18.1603C22.0477 19.1439 21.2833 20.6348 21.2833 22.3018C21.2833 25.2551 23.6866 27.6585 26.6399 27.6585C29.5966 27.6585 31.9999 25.2551 31.9999 22.3018C32 19.3451 29.5966 16.9417 26.6399 16.9417ZM8.0495 22.3005C8.0495 23.7846 6.84219 24.9919 5.35806 24.9919C3.87369 24.9919 2.66631 23.7846 2.66631 22.3005C2.66631 20.8164 3.87362 19.6091 5.35806 19.6091C5.83256 19.6091 6.27806 19.7336 6.66562 19.95L5.68425 20.9864C5.57925 20.9603 5.47106 20.9424 5.35812 20.9424C4.60906 20.9424 3.99969 21.5516 3.99969 22.3004C3.99969 23.0494 4.60906 23.6585 5.35812 23.6585C6.10681 23.6585 6.71619 23.0493 6.71619 22.3004C6.71619 22.162 6.68925 22.0309 6.65056 21.905L7.63262 20.8679C7.89519 21.2834 8.0495 21.7738 8.0495 22.3005ZM26.6416 24.9919C25.1575 24.9919 23.9501 23.7846 23.9501 22.3005C23.9501 21.5853 24.2324 20.9361 24.6891 20.4535L25.4506 21.6616C25.3474 21.8529 25.2834 22.0683 25.2834 22.3005C25.2834 23.0493 25.8928 23.6586 26.6415 23.6586C27.3902 23.6586 27.9996 23.0494 27.9996 22.3005C27.9996 21.5516 27.3902 20.9424 26.6415 20.9424C26.6197 20.9424 26.5993 20.9479 26.5777 20.9489L25.8157 19.7399C26.0761 19.6557 26.3534 19.6091 26.6415 19.6091C28.1256 19.6091 29.3329 20.8164 29.3329 22.3005C29.333 23.7846 28.1256 24.9919 26.6416 24.9919Z" fill="#388FF3"/>
</svg>
