<svg width="32" height="32" viewBox="0 0 32 32" fill="none" xmlns="http://www.w3.org/2000/svg">
<path fill-rule="evenodd" clip-rule="evenodd" d="M7.95735 28.9333C9.30802 25.44 12.7 22.96 16.6667 22.96C20.6334 22.96 24.0254 25.44 25.376 28.9333C25.4947 29.24 25.4547 29.5867 25.268 29.8587C25.0814 30.1307 24.7734 30.2933 24.4427 30.2933H8.89068C8.56135 30.2933 8.25202 30.1307 8.06535 29.8587C7.88002 29.5867 7.83868 29.24 7.95735 28.9333Z" fill="#388FF3"/>
<path fill-rule="evenodd" clip-rule="evenodd" d="M16.976 24.1773C16.856 24.716 16.3214 25.056 15.7827 24.936C15.244 24.816 14.904 24.2813 15.024 23.7427C15.024 23.7427 15.936 19.6333 15.0227 15.3867C14.436 12.6627 13.092 9.86533 10.1627 8.15733C9.6867 7.87867 9.52537 7.26667 9.8027 6.78933C10.0814 6.31333 10.6934 6.152 11.1707 6.42933C14.6414 8.45467 16.284 11.7373 16.9774 14.9653C17.984 19.6467 16.976 24.1773 16.976 24.1773Z" fill="#388FF3"/>
<path fill-rule="evenodd" clip-rule="evenodd" d="M17.4067 18.824C17.2973 19.3653 16.7693 19.716 16.2293 19.6067C15.688 19.4973 15.3373 18.9707 15.4467 18.4293C15.4467 18.4293 15.8653 16.1 18.8973 13.2333C19.2987 12.8547 19.932 12.872 20.3107 13.2733C20.6907 13.6747 20.672 14.308 20.272 14.6867C17.8253 17 17.4067 18.824 17.4067 18.824Z" fill="#388FF3"/>
<path fill-rule="evenodd" clip-rule="evenodd" d="M19.0467 15.8013C18.9493 15.54 18.6133 14.552 18.5867 13.4067C18.552 11.924 19.0187 10.2253 20.8773 9.27333C24.1987 7.57467 28.2893 8.76933 30.088 10.8413C30.308 11.0947 30.3867 11.4387 30.2973 11.7613C30.2093 12.084 29.9667 12.34 29.6493 12.4467C29.6493 12.4467 28.012 13.0427 26.8947 15.2773C26.3427 16.38 24.9333 17.564 23.436 17.9733C22.6093 18.1987 21.7653 18.1947 21.0107 17.8907C20.752 17.7867 20.5 17.6467 20.264 17.4667C20.6227 17.0173 21.064 16.5307 21.6053 16.02C22.0053 15.6413 22.024 15.008 21.644 14.6067C21.2653 14.2053 20.632 14.188 20.2307 14.5667C19.78 14.992 19.388 15.4053 19.0467 15.8013Z" fill="#388FF3"/>
<path fill-rule="evenodd" clip-rule="evenodd" d="M12.3653 13.852C11.8507 14.0827 11.3547 14.1907 10.8853 14.2107C9.44401 14.2707 8.16667 13.472 7.16134 12.3493C6.20001 11.2747 5.48934 9.92667 5.09334 9.072C4.22401 7.20133 1.92267 4.652 1.92267 4.652C1.70801 4.41333 1.62134 4.08667 1.68934 3.77333C1.75734 3.46 1.97067 3.19733 2.26401 3.068C6.17201 1.35333 10.9173 0.901333 14.6253 3.87067C16.3493 5.252 16.5773 7.00933 16.208 8.63067C15.7187 10.78 14.084 12.6453 14.084 12.6453C14.072 12.6587 14.0587 12.672 14.0467 12.6853C13.1053 10.5093 11.5773 8.5 9.17067 7.096C8.69334 6.81867 8.08134 6.98 7.80267 7.456C7.52534 7.93333 7.68667 8.54533 8.16267 8.824C10.3 10.0707 11.5947 11.8973 12.3653 13.852Z" fill="#388FF3"/>
</svg>
