<svg width="32" height="32" viewBox="0 0 32 32" fill="none" xmlns="http://www.w3.org/2000/svg">
<g clip-path="url(#clip0_588_834)">
<path d="M10.5897 2.40538C10.3384 2.50711 10.1111 2.65073 9.90759 2.8302C10.0572 4.04486 10.6615 5.16378 11.589 5.90575C11.6488 5.95362 11.7326 5.98354 11.8104 5.98354C12.0078 5.98354 12.1694 5.82197 12.1634 5.61856C12.1634 5.51085 12.1155 5.41511 12.0377 5.34928C11.1761 4.65518 10.6436 3.56619 10.5897 2.40538Z" fill="#388FF3"/>
<path d="M13.8447 8.60435H18.3204V9.44207H13.8447V8.60435Z" fill="#388FF3"/>
<path d="M13.2345 0.382927H14.4372V1.14883H13.2345V0.382927Z" fill="#388FF3"/>
<path d="M3.88819 3.72776H8.48354C8.90835 2.40538 10.129 1.51386 11.5172 1.50788H12.5164V0.0239363V0H5.65932C4.29506 0 3.18811 1.10695 3.18811 2.47121V3.72776H3.88819Z" fill="#388FF3"/>
<path d="M18.8171 7.88632V4.96635H13.3601V7.88632H13.4858H18.6795H18.8171Z" fill="#388FF3"/>
<path d="M27.5351 19.8414C27.3796 19.6918 26.6795 19.4046 25.4529 19.4046C24.2263 19.4046 23.5262 19.6919 23.3706 19.8414C23.5262 19.991 24.2263 20.2782 25.4529 20.2782C26.6795 20.2782 27.3796 19.991 27.5351 19.8414Z" fill="#388FF3"/>
<path d="M12.5045 27.0935H19.5292V20.015C19.5292 19.9791 19.5292 19.9432 19.5352 19.9073C19.0625 19.2251 18.3325 18.2618 17.2195 16.8915C15.8493 15.2162 14.4671 13.6365 14.0722 13.1877C12.4566 13.2715 11.1821 14.5999 11.1702 16.2214C11.218 16.5804 11.6668 20.2064 11.6668 21.4869C11.6668 22.528 11.224 25.442 11.1702 25.7831C11.1821 26.5131 11.7745 27.0935 12.5045 27.0935Z" fill="#388FF3"/>
<path d="M4.19935 4.44579L3.50525 9.81303H8.23224L7.53814 4.44579H6.95176V8.90954C6.95176 9.10701 6.79019 9.26853 6.59276 9.26853C6.39534 9.26853 6.23377 9.10696 6.23377 8.90954V4.44579H5.39007V8.90954C5.39007 9.10701 5.2285 9.26853 5.03108 9.26853C4.83361 9.26853 4.67209 9.10696 4.67209 8.90954V4.44579H4.19935Z" fill="#388FF3"/>
<path d="M21.6474 18.7943C21.0191 19.0457 20.5703 19.3508 20.3669 19.656C20.3549 19.6739 20.3429 19.6919 20.337 19.7098C20.331 19.7098 20.331 19.7098 20.331 19.7158C20.325 19.7338 20.313 19.7457 20.307 19.7637H20.301L20.2831 19.8175H20.2771L20.2592 19.8774V19.8894C20.2532 19.9013 20.2532 19.9193 20.2532 19.9312C20.2532 19.9372 20.2472 19.9432 20.2472 19.9492V20.0031C20.2532 20.1347 20.2951 20.2544 20.3669 20.362C20.5703 20.6672 21.0191 20.9724 21.6474 21.2237C21.8867 21.3135 22.132 21.3972 22.3774 21.4631C22.6048 21.5229 22.8381 21.5827 23.0894 21.6246C23.8673 21.7742 24.6571 21.846 25.4529 21.8401C26.494 21.8401 27.4873 21.7264 28.337 21.511L30.4133 20.5177C30.4612 20.4699 30.503 20.416 30.5389 20.3621C30.7005 20.1467 30.7005 19.8595 30.5389 19.6441C30.3355 19.339 29.8867 19.0338 29.2585 18.7825C28.2473 18.3816 26.895 18.1662 25.4529 18.1662C24.7528 18.1662 24.0527 18.22 23.3586 18.3277C23.1013 18.3696 22.856 18.4235 22.6227 18.4773C22.2876 18.5609 21.9645 18.6627 21.6474 18.7943ZM25.4529 18.6866C26.8531 18.6866 28.2711 19.0396 28.2711 19.8414C28.2711 20.6432 26.853 20.9962 25.4529 20.9962C24.0527 20.9962 22.6347 20.6373 22.6347 19.8414C22.6347 19.0456 24.0527 18.6866 25.4529 18.6866Z" fill="#388FF3"/>
<path d="M25.4529 22.5699C24.663 22.5699 23.8672 22.5041 23.0894 22.3724C22.838 22.3305 22.5927 22.2767 22.3653 22.2168C21.4678 21.9894 20.7378 21.6664 20.2472 21.2715V28.8885C20.2472 29.2834 20.7199 29.7142 21.5277 30.0553L21.6474 30.1032C21.9346 30.2169 22.2337 30.3126 22.5329 30.3844C23.3048 30.5759 24.0946 30.6895 24.8905 30.7135V23.4016C24.8905 23.264 24.9683 23.1383 25.0939 23.0785L26.1949 22.552C25.9495 22.5639 25.7042 22.5699 25.4529 22.5699Z" fill="#388FF3"/>
<path d="M25.6085 23.629V32L26.9369 31.3657L30.6587 29.5826V21.2715C30.168 21.6664 29.444 21.9896 28.5585 22.2169L25.6085 23.629Z" fill="#388FF3"/>
<path d="M21.1149 16.6522C21.2106 16.6342 21.2824 16.5505 21.2884 16.4547C21.3303 16.0359 21.3542 15.623 21.3542 15.2161C21.3542 14.187 21.1807 13.2236 20.5524 12.5116C19.9241 11.7995 18.9608 11.4525 17.5846 11.4166C17.5247 11.4106 17.4649 11.4346 17.423 11.4764C17.3931 11.5064 17.3691 11.5423 17.3572 11.5842C17.4888 11.8534 18.165 12.8587 19.1522 14.187C20.1395 15.5154 20.8755 16.4308 21.1149 16.6522Z" fill="#388FF3"/>
<path d="M8.29808 28.0269C8.30407 27.985 8.99218 23.5093 8.99218 22.0434C8.99218 20.2363 8.30407 14.7374 8.29808 14.6776C8.2921 14.6656 8.2921 14.6477 8.2921 14.6357C8.2921 13.8519 8.47162 13.08 8.81266 12.3799L8.35792 10.531H3.39157L2.80518 13.5647L1.35116 27.8354C1.29132 28.3859 1.47084 28.9364 1.8418 29.3433C2.21276 29.7561 2.73936 29.9895 3.28984 29.9895H9.06394C8.56731 29.4809 8.29204 28.7928 8.29204 28.0808C8.2921 28.0628 8.2921 28.0448 8.29808 28.0269Z" fill="#388FF3"/>
<path d="M19.5292 28.8885V27.8115H12.5045C11.3736 27.8055 10.4581 26.8901 10.4521 25.7591C10.4521 25.7412 10.4521 25.7232 10.4581 25.7053C10.4641 25.6754 10.9488 22.516 10.9488 21.4869C10.9488 20.2124 10.4581 16.3291 10.4581 16.2872C10.4521 16.2752 10.4521 16.2573 10.4521 16.2453C10.4581 14.163 12.1455 12.4757 14.2278 12.4697C14.3295 12.4697 14.4312 12.5116 14.497 12.5894C14.515 12.6073 16.1545 14.4562 17.7761 16.4368C18.7095 17.5797 19.3796 18.4533 19.8643 19.1294C20.361 18.5131 21.3722 18.0165 22.7005 17.7293C22.8621 16.1915 23.0356 14.8273 23.0595 14.6118C23.0416 12.1526 21.055 10.172 18.5958 10.16H13.4799C11.8524 10.16 10.3564 11.0456 9.57258 12.4697C9.36314 12.8466 9.20761 13.2536 9.11785 13.6724C9.04604 13.9835 9.01013 14.2947 9.01013 14.6118C9.06997 15.0545 9.71021 20.2303 9.71021 22.0434C9.71021 23.5153 9.07596 27.6859 9.01013 28.1107C9.0221 28.7988 9.38109 29.439 9.96149 29.804C10.2248 29.9716 10.518 30.0733 10.8231 30.1091L11.0505 30.1211H20.2173C19.7745 29.7561 19.5292 29.3373 19.5292 28.8885ZM16.6331 11.6081C16.6391 11.3568 16.7468 11.1174 16.9323 10.9499C17.1118 10.7764 17.3511 10.6866 17.6025 10.6986C19.1881 10.7405 20.3309 11.1832 21.0849 12.0389C22.1439 13.2296 22.1559 14.899 22.0063 16.5206C21.9584 17.0052 21.5516 17.3763 21.0669 17.3763H20.9772C20.8036 17.3583 20.5882 17.3404 18.5897 14.6478C18.0871 13.9716 17.6204 13.3194 17.2733 12.8048C16.6272 11.8414 16.6272 11.7337 16.6331 11.6081Z" fill="#388FF3"/>
</g>
<defs>
<clipPath id="clip0_588_834">
<rect width="32" height="32" fill="white"/>
</clipPath>
</defs>
</svg>
