<svg width="32" height="32" viewBox="0 0 32 32" fill="none" xmlns="http://www.w3.org/2000/svg">
<path d="M23.7575 8.33939H22.7393C22.5938 6.64242 21.915 5.13939 20.7029 4.07273C19.4423 2.90909 17.7938 2.27879 16.0484 2.27879H15.9514C14.2544 2.27879 12.6059 2.90909 11.2969 4.07273C10.0847 5.13939 9.40595 6.69091 9.26049 8.33939H8.24231C8.38776 6.35151 9.21201 4.55757 10.6181 3.29697C12.0726 1.98788 13.9635 1.2606 15.9514 1.2606H16.0484C18.0362 1.2606 19.9272 1.98788 21.3817 3.29697C22.7878 4.55757 23.612 6.35151 23.7575 8.33939Z" fill="#388FF3"/>
<path d="M18.7151 16.2909H13.2848C12.9939 16.2909 12.7515 16.5333 12.7515 16.8242V19.7818C12.7515 20.0727 12.9939 20.3152 13.2848 20.3152H18.6666C18.9575 20.3152 19.1999 20.0727 19.1999 19.7818V16.8242C19.1999 16.5333 18.9575 16.2909 18.7151 16.2909ZM18.7151 16.2909H13.2848C12.9939 16.2909 12.7515 16.5333 12.7515 16.8242V19.7818C12.7515 20.0727 12.9939 20.3152 13.2848 20.3152H18.6666C18.9575 20.3152 19.1999 20.0727 19.1999 19.7818V16.8242C19.1999 16.5333 18.9575 16.2909 18.7151 16.2909ZM18.7151 16.2909H13.2848C12.9939 16.2909 12.7515 16.5333 12.7515 16.8242V19.7818C12.7515 20.0727 12.9939 20.3152 13.2848 20.3152H18.6666C18.9575 20.3152 19.1999 20.0727 19.1999 19.7818V16.8242C19.1999 16.5333 18.9575 16.2909 18.7151 16.2909ZM18.7151 16.2909H13.2848C12.9939 16.2909 12.7515 16.5333 12.7515 16.8242V19.7818C12.7515 20.0727 12.9939 20.3152 13.2848 20.3152H18.6666C18.9575 20.3152 19.1999 20.0727 19.1999 19.7818V16.8242C19.1999 16.5333 18.9575 16.2909 18.7151 16.2909ZM31.4181 25.4061L29.1393 15.7091C28.9454 16.1455 28.703 16.5818 28.4121 16.9697C27.3939 18.2788 25.8424 19.0061 24.1939 19.0061H21.3333C21.0424 19.0061 20.7999 18.7636 20.7999 18.4727C20.7999 18.1818 21.0424 17.9394 21.3333 17.9394H24.1939C25.5515 17.9394 26.7636 17.3576 27.5878 16.2909C28.4121 15.2242 28.703 13.9152 28.4121 12.6061L27.9272 10.6182C27.7333 9.89091 27.103 9.35757 26.3272 9.35757H5.67267C4.89691 9.35757 4.26661 9.89091 4.07267 10.6182L3.63631 12.6061C3.3454 13.9152 3.63631 15.2727 4.46055 16.2909C5.28479 17.3576 6.5454 17.9394 7.85449 17.9394H10.7151C11.006 17.9394 11.2484 18.1818 11.2484 18.4727C11.2484 18.7636 11.006 19.0061 10.7151 19.0061H7.85449C6.20601 19.0061 4.65449 18.2788 3.63631 16.9697C3.3454 16.5818 3.10297 16.1455 2.90903 15.7091L0.630246 25.4061C0.339337 26.7152 0.630246 28.0727 1.45449 29.0909C2.27873 30.1576 3.53934 30.7394 4.84843 30.7394H27.1515C28.509 30.7394 29.7212 30.1576 30.5454 29.0909C31.4181 28.0242 31.709 26.7152 31.4181 25.4061ZM20.2666 19.7818C20.2666 20.6545 19.5878 21.3333 18.7151 21.3333H13.2848C12.4121 21.3333 11.7333 20.6545 11.7333 19.7818V16.8242C11.7333 15.9515 12.4121 15.2727 13.2848 15.2727H18.6666C19.5393 15.2727 20.2181 15.9515 20.2181 16.8242L20.2666 19.7818ZM18.7151 16.2909H13.2848C12.9939 16.2909 12.7515 16.5333 12.7515 16.8242V19.7818C12.7515 20.0727 12.9939 20.3152 13.2848 20.3152H18.6666C18.9575 20.3152 19.1999 20.0727 19.1999 19.7818V16.8242C19.1999 16.5333 18.9575 16.2909 18.7151 16.2909ZM18.7151 16.2909H13.2848C12.9939 16.2909 12.7515 16.5333 12.7515 16.8242V19.7818C12.7515 20.0727 12.9939 20.3152 13.2848 20.3152H18.6666C18.9575 20.3152 19.1999 20.0727 19.1999 19.7818V16.8242C19.1999 16.5333 18.9575 16.2909 18.7151 16.2909ZM18.7151 16.2909H13.2848C12.9939 16.2909 12.7515 16.5333 12.7515 16.8242V19.7818C12.7515 20.0727 12.9939 20.3152 13.2848 20.3152H18.6666C18.9575 20.3152 19.1999 20.0727 19.1999 19.7818V16.8242C19.1999 16.5333 18.9575 16.2909 18.7151 16.2909Z" fill="#388FF3"/>
</svg>
