<svg width="32" height="32" viewBox="0 0 32 32" fill="none" xmlns="http://www.w3.org/2000/svg">
<path d="M16.5712 12.8571C16.5712 13.6461 17.2108 14.2857 17.9997 14.2857C18.7887 14.2857 19.4283 13.6461 19.4283 12.8571C19.4283 12.0681 18.7887 11.4286 17.9997 11.4286C17.2111 11.4294 16.572 12.0685 16.5712 12.8571Z" fill="#388FF3"/>
<path d="M19.9998 10.8571C20.0005 11.488 20.5118 11.9993 21.1426 12C21.7738 12 22.2855 11.4883 22.2855 10.8571C22.2855 10.226 21.7738 9.71426 21.1426 9.71426C20.5114 9.71426 19.9998 10.226 19.9998 10.8571Z" fill="#388FF3"/>
<path d="M7.9968 6.88631C8.09218 6.86949 8.18868 6.85974 8.28543 6.85712C9.30999 6.86043 10.1657 7.63906 10.2654 8.65874C10.4578 8.60349 10.6567 8.57412 10.8569 8.57137C11.9627 8.57368 12.9082 9.36743 13.1021 10.4562C13.3886 10.3456 13.6927 10.2879 13.9997 10.2856C14.7803 10.2884 15.5169 10.6475 15.9997 11.2607C16.6809 10.3805 17.8599 10.0531 18.8974 10.4562C19.0912 9.36743 20.0367 8.57368 21.1426 8.57137C21.3428 8.57412 21.5417 8.60349 21.7341 8.65874C21.8338 7.63899 22.6894 6.86043 23.7141 6.85712C23.8109 6.85974 23.9073 6.86949 24.0027 6.88631C24.0026 6.87637 23.9997 6.86712 23.9997 6.85712C24.0017 6.57356 24.0749 6.29499 24.2126 6.04712C23.505 5.29449 22.8751 4.47256 22.3323 3.59374L22.3089 3.55887V3.55918C22.0012 3.06474 21.7644 2.62312 21.5866 2.26324C21.2696 2.47849 20.9252 2.65056 20.5628 2.77499C20.5236 2.79418 20.4823 2.80862 20.4397 2.81806C18.9999 3.24856 17.5022 3.45449 15.9997 3.42862C14.4972 3.45449 12.9998 3.24862 11.5601 2.81824C11.5167 2.80874 11.4748 2.79406 11.435 2.77449C11.0731 2.65018 10.7294 2.47831 10.4128 2.26331C10.2351 2.62318 9.99818 3.06481 9.69049 3.55924V3.55899L9.66705 3.59387C9.1243 4.47274 8.49437 5.29468 7.78687 6.04724C7.92449 6.29518 7.99762 6.57368 7.99962 6.85724C7.99974 6.86712 7.99693 6.87637 7.9968 6.88631Z" fill="#388FF3"/>
<path d="M25.714 7.42855C26.0296 7.42855 26.2855 7.17274 26.2855 6.85711C26.2851 6.54167 26.0295 6.28599 25.714 6.28568C25.3985 6.28568 25.1426 6.54149 25.1426 6.85711C25.1426 7.17274 25.3985 7.42855 25.714 7.42855Z" fill="#388FF3"/>
<path d="M22.8568 8.85713C22.8573 9.33031 23.2408 9.71375 23.7139 9.71425C24.1873 9.71425 24.5711 9.3305 24.5711 8.85713C24.5711 8.38375 24.1873 8 23.7139 8C23.2406 8 22.8568 8.38375 22.8568 8.85713Z" fill="#388FF3"/>
<path d="M15.9997 2.28569C19.3122 2.28569 21.0254 1.46619 21.1409 1.14281C21.0253 0.8195 19.3122 0 15.9997 0C12.6571 0 10.9433 0.834312 10.8557 1.1515C10.9433 1.45144 12.657 2.28569 15.9997 2.28569Z" fill="#388FF3"/>
<path d="M9.71399 10.8571C9.71399 11.4883 10.2257 12 10.8569 12C11.4881 12 11.9997 11.4883 11.9997 10.8571C11.9997 10.226 11.4881 9.71426 10.8569 9.71426C10.226 9.71501 9.71474 10.2263 9.71399 10.8571Z" fill="#388FF3"/>
<path d="M14.469 26.9467C15.4609 27.2909 16.5397 27.2907 17.5315 26.9462C27.8964 23.3078 29.4662 11.9437 29.6822 9.56143C28.6578 9.23568 27.6817 8.77412 26.7801 8.189C26.479 8.43481 26.1027 8.56981 25.714 8.57143C25.704 8.57143 25.6947 8.56862 25.6849 8.56849C25.7016 8.66387 25.7114 8.76037 25.714 8.85718C25.7127 9.96118 24.818 10.8559 23.714 10.8572C23.6172 10.8546 23.5207 10.8448 23.4254 10.828C23.4255 10.838 23.4283 10.8472 23.4283 10.8572C23.427 12.119 22.4044 13.1416 21.1426 13.1429C20.9424 13.1401 20.7436 13.1107 20.5511 13.0555C20.4774 14.1079 19.7636 15.0064 18.7551 15.3161C17.7467 15.6259 16.6516 15.283 15.9998 14.4534C15.3481 15.283 14.2529 15.6259 13.2445 15.3161C12.236 15.0064 11.5222 14.1079 11.4485 13.0555C11.2561 13.1107 11.0571 13.1401 10.857 13.1429C9.59518 13.1416 8.57262 12.1189 8.57131 10.8572C8.57131 10.8472 8.57412 10.838 8.57424 10.828C8.47887 10.8448 8.38237 10.8546 8.28562 10.8572C7.18162 10.8559 6.28693 9.96118 6.28562 8.85718C6.28824 8.76037 6.29799 8.66387 6.31474 8.56849C6.30487 8.56868 6.29562 8.57143 6.28562 8.57143C5.89699 8.56975 5.52068 8.43475 5.21962 8.189C4.31806 8.77406 3.34218 9.23562 2.31799 9.56137C2.53656 11.9445 4.11799 23.3131 14.469 26.9467Z" fill="#388FF3"/>
<path d="M20.3557 30.7025C20.4398 31.0059 20.2627 31.3202 19.9595 31.4054C19.6564 31.4905 19.3415 31.3145 19.2553 31.0117C18.9262 29.8351 18.966 28.5859 19.3693 27.4327C18.8994 27.6443 18.4177 27.8461 17.9088 28.0248C16.6727 28.4539 15.328 28.4541 14.0918 28.0254C13.5825 27.8466 13.1004 27.6446 12.6303 27.4328C13.0335 28.5861 13.0733 29.8352 12.7442 31.0117C12.6896 31.209 12.5336 31.3619 12.3353 31.4127C12.1371 31.4636 11.9268 31.4045 11.784 31.2579C11.6412 31.1112 11.5877 30.8994 11.6437 30.7026C11.7162 30.4438 11.7665 30.1794 11.7942 29.9121C9.06516 30.1764 7.88054 30.6233 7.51929 30.86C8.16379 31.2989 11.0254 32 15.9997 32C20.9741 32 23.8357 31.2989 24.4802 30.8599C24.1189 30.6232 22.934 30.1761 20.2043 29.9119C20.2325 30.1792 20.2832 30.4437 20.3557 30.7025Z" fill="#388FF3"/>
<path d="M8.28547 9.71431C8.75884 9.71431 9.1426 9.33056 9.1426 8.85719C9.1426 8.38381 8.75884 8.00006 8.28547 8.00006C7.81228 8.00056 7.42884 8.38406 7.42834 8.85719C7.42834 9.3305 7.8121 9.71431 8.28547 9.71431Z" fill="#388FF3"/>
<path d="M12.5712 12.8571C12.5712 13.6461 13.2108 14.2857 13.9997 14.2857C14.7887 14.2857 15.4283 13.6461 15.4283 12.8571C15.4283 12.0681 14.7887 11.4286 13.9997 11.4286C13.2111 11.4294 12.572 12.0685 12.5712 12.8571Z" fill="#388FF3"/>
<path d="M6.28543 7.42855C6.60099 7.42855 6.85686 7.17274 6.85686 6.85711C6.85686 6.54149 6.60105 6.28568 6.28543 6.28568C5.96999 6.28599 5.7143 6.54167 5.71399 6.85711C5.71399 7.17274 5.96986 7.42855 6.28543 7.42855Z" fill="#388FF3"/>
</svg>
