<svg width="32" height="32" viewBox="0 0 32 32" fill="none" xmlns="http://www.w3.org/2000/svg">
<g clip-path="url(#clip0_588_610)">
<path fill-rule="evenodd" clip-rule="evenodd" d="M28.5577 23.4788H6.93639C6.81583 23.4788 6.70276 23.4207 6.63226 23.3232L1.94118 16.8194C1.05505 15.5909 1.96406 13.8874 3.43894 13.8874C4.03482 13.8874 4.59694 14.1739 4.94307 14.6537L8.63833 19.7766H28.5575C29.578 19.7766 30.4081 20.6069 30.4081 21.6275C30.4081 22.648 29.5784 23.479 28.5578 23.479L28.5577 23.4788Z" fill="#388FF3"/>
<path fill-rule="evenodd" clip-rule="evenodd" d="M27.1801 25.52H8.48609C8.27908 25.52 8.11108 25.3518 8.11108 25.145V23.1033C8.11108 22.8963 8.27908 22.7283 8.48609 22.7283H27.1801C27.3871 22.7283 27.5551 22.8965 27.5551 23.1033V25.145C27.5551 25.3518 27.3871 25.52 27.1801 25.52Z" fill="#388FF3"/>
<path fill-rule="evenodd" clip-rule="evenodd" d="M9.74726 32C8.84388 32 8.35394 31.1051 8.75538 29.7247L10.1181 25.0402C10.2535 24.5746 10.9508 24.7687 10.8447 25.2247H12.1308L12.1844 25.0403C12.3222 24.5662 13.0426 24.776 12.9046 25.25L12.572 26.3932H23.0939C22.8815 25.6627 22.5082 24.9333 23.0165 24.7852C23.3759 24.6803 23.4731 25.0118 23.5314 25.2123H24.8178C24.7276 24.7651 25.4129 24.5787 25.547 25.0402L26.9098 29.7247C27.7256 32.5293 24.9024 32.6124 24.3348 30.6607L23.7764 28.7422H11.8883L11.3303 30.6607C11.1138 31.4043 10.4663 32.0002 9.74708 32.0002L9.74726 32Z" fill="#388FF3"/>
<path fill-rule="evenodd" clip-rule="evenodd" d="M8.38685 12.8708C7.9661 12.8708 7.96816 12.3188 7.85941 11.7767C7.57966 10.3828 7.60497 9.02872 7.88172 7.76496C10.1767 7.1059 11.7285 7.3249 12.5578 7.3504C12.6086 9.22109 12.8934 10.4706 13.2508 12.2787C12.516 12.1583 11.079 11.8439 8.61017 12.813L8.38685 12.8708ZM8.10466 6.93021C9.04592 3.95814 11.4081 1.58981 14.4298 0.55931C13.2825 1.62844 12.6096 3.83326 12.5548 6.5044C11.1842 6.29664 9.32079 6.6244 8.10466 6.9304V6.93021ZM17.0805 0.0266201C20.3432 -0.200818 23.3584 1.07737 25.3523 3.4127C24.0572 3.60057 22.2045 4.01457 21.0613 4.7057C20.2819 2.91694 18.7043 0.630935 17.0807 0.0264326L17.0805 0.0266201ZM25.8855 4.09782C26.6551 5.18439 27.2104 6.44702 27.4892 7.83584C27.6164 8.46847 27.8851 9.06678 27.1964 9.08141C24.4184 9.14084 23.2671 10.0564 22.6534 10.4269C22.3013 8.6719 21.9422 7.01271 21.3747 5.48495C22.132 5.15364 23.5607 4.3592 25.8855 4.09801V4.09782ZM21.9088 10.5285C19.1606 10.1449 16.3661 10.7098 13.9881 12.1414C13.6236 10.2972 13.3391 9.06509 13.3125 7.14302C13.908 6.69602 16.5122 4.97739 20.6153 5.59108C21.2003 7.11227 21.5571 8.77559 21.9088 10.5285ZM13.3241 6.22014C13.4436 3.24695 14.3526 0.932624 15.7978 0.642748C17.5982 0.281246 19.4606 3.00657 20.2787 4.79008C16.7889 4.3877 14.3978 5.53708 13.3241 6.22014Z" fill="#388FF3"/>
<path fill-rule="evenodd" clip-rule="evenodd" d="M20.7723 20.527C20.278 20.527 19.501 20.527 18.7325 20.527C18.5575 20.527 18.4011 20.4038 18.3653 20.2257L16.4367 10.6185C16.3791 10.3317 19.0998 9.91203 19.133 10.0778L21.1405 20.0781C21.187 20.3097 21.0081 20.527 20.7723 20.527Z" fill="#388FF3"/>
</g>
<defs>
<clipPath id="clip0_588_610">
<rect width="32" height="32" fill="white"/>
</clipPath>
</defs>
</svg>
